<svg id="Layer_2" data-name="Layer 2" xmlns="http://www.w3.org/2000/svg" viewBox="0 0 1000 1000"><defs><style>.cls-1{fill:#1f404e;}.cls-2{fill:#fff;}</style></defs><rect class="cls-1" width="1000" height="1000"/><path class="cls-2" d="M744.24,398.88q-51.24,0-125.16,27.88-34.38,13-58.69,34.69-19.27,17.25-23.25,34.87-38.13,42.93-94,67.52-70,30.79-130.34,30.8h-7.14q-54.46-.66-78.46-31.78-13.62-17.5-13.62-41.17t9.08-51.56q22-70,77.82-133.91t108.62-95q52.85-31.14,85.92-31.13,38.26,0,38.26,36.31,0,18.82-11,36.32a182.11,182.11,0,0,1-66.79,71.66,213.89,213.89,0,0,1-95.33,31.45q-15.57,1.31-16.21,13-.66,8.43,13,7.13,33.7-3.24,79.43-25.61a310.19,310.19,0,0,0,83.33-60q37.6-37.6,37.62-73.28A49.15,49.15,0,0,0,545,214q-18.82-20.74-62.91-20.75-35.67,0-74.57,15.56Q307,250.3,236.31,357.94q-51.9,79.13-51.88,147.86,0,40.84,22.7,66.14,35,38.91,103.75,38.91,65.49,0,135.54-33.07a301.58,301.58,0,0,0,90.19-65.29q2.73,18,19.89,31.32,20.43,15.9,49.61,25.62,75.87,25.29,118,44.74,36.3,16.88,36.31,46.69,0,10.38-10.37,25.29-26,40.86-129.7,75.23a313.77,313.77,0,0,1-97.27,15.56q-49.31,0-66.8-14.26T438.8,730.25q0-29.18,32.43-58.36a183.17,183.17,0,0,1,53.17-34.7q28.53-12,46.69-12.32T590.55,620q1.29-4.53-12.32-4.54-57.08,0-109,35.67-62.91,40.22-62.9,97.92t102.46,57.71q51.87,0,124.51-28.85t118-72.31q29.82-29.82,29.83-55.12t-22.37-46q-22.38-20.76-47.34-32.1T646,545.76Q605.46,530.52,591.84,524q-25.29-12.3-25.29-25.94,0-16.84,41.51-39.55A287.54,287.54,0,0,1,682,430.33q38.26-8.76,61.61-8.76,55.11,0,55.12,27.89,0,13-21.4,33.07-7.14,7.14-7.13,7.78,0,7.79,12,1.3t21.73-24q11.67-18.8,11.67-33.07Q815.57,398.89,744.24,398.88Z"/></svg>