<svg id="Layer_2" data-name="Layer 2" xmlns="http://www.w3.org/2000/svg" viewBox="0 0 2214.77 451.54"><defs><style>.cls-1{fill:#fff;}.cls-2{fill:#c0b0a0;}</style></defs><path class="cls-1" d="M215.2,35.2q0-22.4-23.6-22.4-20.4,0-53,19.2t-67,58.6Q37.19,130,23.6,173.2,18,190.4,18,205a40.15,40.15,0,0,0,8.4,25.4Q41.19,249.6,74.8,250h4.4q37.2,0,80.4-19t69.2-55.8q2-2.79,4.2-1.2c1.46,1.07,2.2,2,2.2,2.8a2.72,2.72,0,0,1-.8,2q-29.61,40.41-72.8,60.8T78,260q-42.4,0-64-24Q0,220.4,0,195.2,0,152.81,32,104,75.59,37.61,137.6,12q24-9.6,46-9.6,27.19,0,38.8,12.8A30.31,30.31,0,0,1,230,35.6q0,22-23.2,45.2a191.37,191.37,0,0,1-51.4,37q-28.2,13.8-49,15.8-8.4.81-8-4.4.39-7.2,10-8a131.84,131.84,0,0,0,58.8-19.4,112.24,112.24,0,0,0,41.2-44.2A41.49,41.49,0,0,0,215.2,35.2Z"/><path class="cls-1" d="M304.8,192.8Q312,178,312,170t-1.8-12.6q-1.8-4.59,1.6-7.8a9.73,9.73,0,0,1,8.6-2.4q8,2,8,18t-18.8,42Q310,218,320.8,218t32.8-23.2q10.39-12,13-15.6c1.73-2.4,3.26-3.26,4.6-2.6s2,1.27,2,1.8q0,4-14.4,20.8-22.8,28-40.4,28-11.61,0-16.4-10-8,8.4-15.6,15.6Q270.8,246,251.6,246q-10.8,0-18-5.2-14-8.4-14-30,0-23.6,16-48a115.82,115.82,0,0,1,21.6-25.2q19.59-17.19,37.2-17.2a29.11,29.11,0,0,1,8.4,1.2q12,4,12,15.2,0,9.21-4.8,9.2c-1.34-.53-2-2.53-2-6q0-7.2-8-7.2-14,0-36,25.6T237.6,210a54.44,54.44,0,0,0-.8,9.8q0,5.4,3.6,12.4t13.4,7q9.79,0,21.4-8.8A93.53,93.53,0,0,0,296,208"/><path class="cls-1" d="M380.19,163.8a232.06,232.06,0,0,1,37-27q19.2-11.19,30.4-14a90.84,90.84,0,0,1,22-2.8q10.8,0,20.4,7.2Q544.8,0,594.79,0q16.8,0,22.8,9.6,2.8,4.8,2.8,8.4,0,10-8.6,25.4t-26.6,33.8q-18,18.4-51.6,45.4t-37.2,30.2a397.75,397.75,0,0,0-20,57.2q-7.2,27.6-7.2,41.2t4.8,21.6q2.4,5.19,7.2,6.2a10.64,10.64,0,0,0,8.2-1.2,45.34,45.34,0,0,0,5.2-3.8,22.84,22.84,0,0,1,4.4-3c1.74-.94,3-1.14,3.8-.6s.67,2-.4,4.4a83.38,83.38,0,0,1-6,6.8,25.82,25.82,0,0,1-15,4.4,102.81,102.81,0,0,1-11.4-.4q-19.2-3.21-19.2-28a147.86,147.86,0,0,1,6.4-44.4q8.81-28,16-46.4-64,74.4-90.8,74.4a30.52,30.52,0,0,1-13.8-3.8A36.13,36.13,0,0,1,356,226.6a24.7,24.7,0,0,1-5.2-15,33.56,33.56,0,0,1,3.6-15.2Q362.4,179.6,380.19,163.8Zm106.6-30.2q-4.8-2.4-16.8-2.4T439,141a177.16,177.16,0,0,0-35.8,24.6,157,157,0,0,0-24.6,29.8Q368,212,368,219.6q0,14.81,8.4,14.8T402,220.8a820.09,820.09,0,0,0,79.2-73.6ZM604,32.8q5.21-9.6,5.2-16.2t-5.8-6.6q-5.79,0-15.4,7.2-44,33.6-79.6,112.4,26-16.8,54.4-44.8T604,32.8Z"/><path class="cls-1" d="M604.79,120.4q21.6,0,21.6,20.8,0,10.8-6,17.6-10,14.8-32.4,25.8t-38,12.2q-5.6.4-6-3.2c-.26-1.06.07-1.73,1-2a9,9,0,0,1,2.2-.4q9.21-.8,23.6-8.8Q597.6,168,610,152.8q5.21-7.2,5.2-13.8t-6.4-6.6q-5.19,0-14,4.4-18.79,8.8-39.6,30.6T528,210a42.23,42.23,0,0,0-2,12.6q0,6.21,5.2,11.8t16,5.6q12,0,27.6-6.4Q620,215.21,644.39,178q2.4-3.19,4.4-1.2c1.07.54,1.6,1.2,1.6,2a4.92,4.92,0,0,1-1.2,2.8,142.63,142.63,0,0,1-30.4,35.6q-35.6,30.39-69.2,30.4-28.8,0-40.4-17.2a29.56,29.56,0,0,1-4.4-16.4q0-9.6,5.2-22.8,10-22.8,42.8-46.8T604.79,120.4Z"/><path class="cls-1" d="M659.59,185.6q-4.8,13.6-5.2,18.2t-.4,12.4a26.21,26.21,0,0,0,4,14.2q6.79,10.8,22.8,1.6,12-6.39,30.4-23.4t28.4-31a2.68,2.68,0,0,1,2.4-1.2c2.4,0,3.06,1.74,2,5.2q-6,10.8-22.2,27.6t-29.4,26.6q-13.2,9.8-26.4,9.8-30.4,0-30.4-29.6v-2.4q1.59-28,28.4-84.6t48.4-85.4L724.79,28a143.58,143.58,0,0,1,12.8-12.8q16-15.19,33-15.2t23,10.4q2,3.6,2,10.4t-6,19.2Q748.39,111.61,659.59,185.6ZM778.79,32.8q4.8-8.79,4.8-13.6,0-8.4-6.8-8.4-5.61,0-14,6.4-32,24.81-62,78.4-24,43.2-35.2,74,27.6-18.79,61.8-61.2T778.79,32.8Z"/><path class="cls-1" d="M754,241.2a30.45,30.45,0,0,1-13.8-3.8,36.13,36.13,0,0,1-12.6-10.8,24.64,24.64,0,0,1-5.2-15,33.56,33.56,0,0,1,3.6-15.2q8-16.8,25.8-32.6a232.06,232.06,0,0,1,37-27q19.2-11.19,30.4-14A90.06,90.06,0,0,1,841,120a30.6,30.6,0,0,1,18.2,5.4q7.61,5.4,7.6,11.4c0,1.34-.13,2.14-.4,2.4s-.93.14-2-.4q-4.8-7.59-19.8-7.6t-34,9.8a176.88,176.88,0,0,0-35.8,24.6,157,157,0,0,0-24.6,29.8q-10.6,16.6-10.6,24.2,0,14.81,8.4,14.8t25.6-13.6q28.39-24,38.8-35.2Q849.18,146,852,146q4.8,0,11.6,2.8t4.4,6.8q-20.4,28.8-24,58a85.38,85.38,0,0,0-.4,9.2,13.34,13.34,0,0,0,3.2,9.2q6,6.41,16.4.8t29-22.4q18.6-16.8,29.8-32.8,1.6-2,3.6-1c1.33.67,2,1.27,2,1.8q0,6-19,26.2t-29,27.4q-18.8,14-34.8,14-15.19,0-20.4-15.2a44.61,44.61,0,0,1-1.2-10.8q0-18,7.6-38-1.6.81-14.8,16a237,237,0,0,1-30.6,29.2Q768,241.21,754,241.2Z"/><path class="cls-1" d="M1028.38,123.2q9.19,0,9.2,9.8t-9.2,27a311.24,311.24,0,0,0-13.6,28q-7.6,18.41-7.6,29.4t3.2,14.6q6,6.41,16.4.6t29-22.4q18.6-16.59,29.8-32.6a2.92,2.92,0,0,1,3.8-1c1.46.67,2.2,1.34,2.2,2a4.08,4.08,0,0,1-.8,2.2q-6,10.8-21.6,27.6t-30,27q-14.4,10.2-28.4,10.2-13.6-.4-19.2-6.2a20.13,20.13,0,0,1-5.6-14.6,88.4,88.4,0,0,1,1.6-17,103.81,103.81,0,0,1,6-19,269.65,269.65,0,0,1,12.6-26.8q5.4-9.6,5.4-12.6t-3.2-3q-6.4,0-24.4,15.6-12.4,11.61-36.6,43.8T920,240q-14.4,7.2-18,7.2t-3.6-1.2a10.92,10.92,0,0,1,.8-3.4q.8-2.21,7.8-21.8t15.2-43q8.19-23.4,10-28.2a47.67,47.67,0,0,0,2.4-8.2,40.6,40.6,0,0,1,1.4-5.8,20.2,20.2,0,0,1,3-5.4,7.41,7.41,0,0,1,5.8-3.2,42,42,0,0,1,9.2.8q5.6,1,5.6,5,0,2.8-4.4,12.2T930,209.6q14.4-17.59,36.4-40.6t37.2-35Q1018.78,123.2,1028.38,123.2Z"/><path class="cls-1" d="M1098.18,163.8a231.61,231.61,0,0,1,37-27q19.2-11.19,30.4-14a90.78,90.78,0,0,1,22-2.8q10.8,0,20.4,7.2Q1262.78,0,1312.78,0q16.8,0,22.8,9.6c1.86,3.2,2.8,6,2.8,8.4q0,10-8.6,25.4t-26.6,33.8q-18,18.4-51.6,45.4t-37.2,30.2a396.54,396.54,0,0,0-20,57.2q-7.2,27.6-7.2,41.2t4.8,21.6q2.4,5.19,7.2,6.2a10.64,10.64,0,0,0,8.2-1.2,46.26,46.26,0,0,0,5.2-3.8,22.53,22.53,0,0,1,4.4-3q2.6-1.41,3.8-.6c.8.53.66,2-.4,4.4a87.36,87.36,0,0,1-6,6.8,25.86,25.86,0,0,1-15,4.4,102.55,102.55,0,0,1-11.4-.4q-19.2-3.21-19.2-28a147.55,147.55,0,0,1,6.4-44.4q8.79-28,16-46.4-64,74.4-90.8,74.4a30.45,30.45,0,0,1-13.8-3.8,36,36,0,0,1-12.6-10.8,24.64,24.64,0,0,1-5.2-15,33.56,33.56,0,0,1,3.6-15.2Q1080.38,179.6,1098.18,163.8Zm106.6-30.2q-4.8-2.4-16.8-2.4t-31,9.8a176.88,176.88,0,0,0-35.8,24.6,156.28,156.28,0,0,0-24.6,29.8Q1086,212,1086,219.6q0,14.81,8.4,14.8t25.6-13.6a820.09,820.09,0,0,0,79.2-73.6ZM1322,32.8q5.19-9.6,5.2-16.2t-5.8-6.6q-5.81,0-15.4,7.2-44,33.6-79.6,112.4,26-16.8,54.4-44.8T1322,32.8Z"/><path class="cls-1" d="M1560,25.6q0,8.81-7.2,20.4-6,10.8-13.4,14.8T1532,60q0-.39,4.4-4.8,13.2-12.39,13.2-20.4,0-17.19-34-17.2-14.4,0-38,5.4A177.72,177.72,0,0,0,1432,40.4q-25.6,14-25.6,24.4,0,8.4,15.6,16,8.4,4,33.4,13.4t40.4,16.4a110,110,0,0,1,29.2,19.8q13.8,12.81,13.8,28.4t-18.4,34q-28,26.8-72.8,44.6t-76.8,17.8q-63.19,0-63.2-35.6t38.8-60.4q32-22,67.2-22c5.6,0,8.13.94,7.6,2.8s-4.53,2.87-12,3-17.07,2.67-28.8,7.6a113.15,113.15,0,0,0-32.8,21.4q-20,18-20,36,0,11.2,10.8,20t41.2,8.8a193.35,193.35,0,0,0,60-9.6q64-21.19,80-46.4,6.4-9.2,6.4-15.6,0-18.39-22.4-28.8-26-12-72.8-27.6-18-6-30.6-15.8t-12.6-23.6q0-13.8,15-27.2t36.2-21.4q45.6-17.19,77.2-17.2Q1560,3.6,1560,25.6Z"/><path class="cls-1" d="M1575.57,154.8q0-.39,8.8-16.8a41.24,41.24,0,0,1-8.2.8c-2.8,0-4.87-.86-6.2-2.6s-1.47-3.8-.4-6.2q2.79-6.39,21.2-7.2a1.61,1.61,0,0,1,1.6-.8l20-37.2q1.59-3.19,3.6-6.6c1.33-2.26,2.33-4,3-5.2s1.4-2.46,2.2-3.8a15.51,15.51,0,0,1,2-2.8l1.6-1.6c1.06-1.6,4.2-2.4,9.4-2.4s8.73,1.47,10.6,4.4q1.2,1.61,1.2,5.4a16.5,16.5,0,0,1-2.8,8.4,19.55,19.55,0,0,1-6,6.6,11.53,11.53,0,0,0-4.4,4.4l-19.2,33.6,5.2-.4q30.8-2.79,37.4-2.8t6.6,2q0,2.4-9.4,5t-45.8,6.6q-2,3.6-4.8,8.4-6,9.6-6.4,11.6-22.8,45.6-24,58a85.38,85.38,0,0,0-.4,9.2,13.29,13.29,0,0,0,3.2,9.2q5.6,6.41,16,.8t29-22.4q18.6-16.8,30.2-32.8a2.94,2.94,0,0,1,4-.8q6,2.8-20.8,31.6-25.6,27.6-42.8,34-10,3.6-16.8,3.6-16,0-21.2-15.2a24.72,24.72,0,0,1-.8-6.8q0-14,12.8-42.4"/><path class="cls-1" d="M1811.57,208.4q-15.6,16.8-28,26a58.1,58.1,0,0,1-34.8,11.6q-3.6,0-9.4-3.4a16.81,16.81,0,0,1-7.8-9.8,41.24,41.24,0,0,1-2-12.4,111.93,111.93,0,0,1,8-41.2q-1.2.81-11,17a166.45,166.45,0,0,1-24,30.6q-14.21,14.4-28.6,14.4-6.81,0-15.6-3.6-16-7.2-16-26.4,0-23.59,16.2-48.6t20.6-26.6a44.57,44.57,0,0,1,11.4-1.6,30.11,30.11,0,0,1,11,2.2q5.6,2.21-1.6,7.4-27.6,25.2-39.2,56-4.41,12-4.4,20.2t4.2,10.6a16.47,16.47,0,0,0,8.2,2.4q9.6,0,26.2-13.4t45.8-55.8q4-6,14-23.4t12-20.6a46.62,46.62,0,0,1,15,3q8.6,3,5.8,7.8-19.2,32-27,47.2T1750,213.6a85.38,85.38,0,0,0-.4,9.2,13.29,13.29,0,0,0,3.2,9.2q6,6.41,16.6.6t29-22.4q18.39-16.59,29.6-32.6a2.92,2.92,0,0,1,3.8-1c1.46.67,2.2,1.34,2.2,2a4.08,4.08,0,0,1-.8,2.2Q1827.17,191.6,1811.57,208.4Z"/><path class="cls-1" d="M1841,163.8a231.61,231.61,0,0,1,37-27q19.2-11.19,30.4-14a90.78,90.78,0,0,1,22-2.8q10.8,0,20.4,7.2Q2005.57,0,2055.57,0q16.8,0,22.8,9.6c1.86,3.2,2.8,6,2.8,8.4q0,10-8.6,25.4T2046,77.2q-18,18.4-51.6,45.4t-37.2,30.2a396.54,396.54,0,0,0-20,57.2q-7.2,27.6-7.2,41.2t4.8,21.6q2.4,5.19,7.2,6.2a10.64,10.64,0,0,0,8.2-1.2,46.26,46.26,0,0,0,5.2-3.8,22.53,22.53,0,0,1,4.4-3q2.6-1.41,3.8-.6c.8.53.66,2-.4,4.4a87.36,87.36,0,0,1-6,6.8,25.86,25.86,0,0,1-15,4.4,102.55,102.55,0,0,1-11.4-.4q-19.2-3.21-19.2-28a147.55,147.55,0,0,1,6.4-44.4q8.79-28,16-46.4-64,74.4-90.8,74.4a30.45,30.45,0,0,1-13.8-3.8,36,36,0,0,1-12.6-10.8,24.64,24.64,0,0,1-5.2-15,33.56,33.56,0,0,1,3.6-15.2Q1823.17,179.6,1841,163.8Zm106.6-30.2q-4.8-2.4-16.8-2.4t-31,9.8a176.88,176.88,0,0,0-35.8,24.6,156.28,156.28,0,0,0-24.6,29.8q-10.61,16.6-10.6,24.2,0,14.81,8.4,14.8t25.6-13.6a820.09,820.09,0,0,0,79.2-73.6Zm117.2-100.8q5.19-9.6,5.2-16.2t-5.8-6.6q-5.8,0-15.4,7.2-44,33.6-79.6,112.4,26-16.8,54.4-44.8T2064.77,32.8Z"/><path class="cls-1" d="M1991.77,150.6c6.7-14.19,13-23.8,17-24.6h2.8q10,0,12,6.4a9.94,9.94,0,0,1-1,7,59.92,59.92,0,0,0-2.6,5.4c-.54,1.34-.94,2.4-1.2,3.2q-2,4-4,7.6-22.8,45.6-24,58a85.38,85.38,0,0,0-.4,9.2,13.29,13.29,0,0,0,3.2,9.2q5.6,6.41,16,.8t29-22.4q18.6-16.8,30.2-32.8,1.59-2,3.6-1c1.33.67,2,1.34,2,2a4.08,4.08,0,0,1-.8,2.2q-6,10.8-21.6,27.6-25.6,27.6-42.8,34-10,3.6-16.8,3.6-16,0-21.2-15.2a24.72,24.72,0,0,1-.8-6.8q0-14,12.8-42.4-2,4.41-15.6,20-3.6,4-5.6,0a4.91,4.91,0,0,1-.4-2.2,5.93,5.93,0,0,1,1.6-3.4"/><path class="cls-1" d="M2146.37,192.8q7.2-14.79,7.2-22.8t-1.8-12.6q-1.8-4.59,1.6-7.8a9.73,9.73,0,0,1,8.6-2.4q8,2,8,18t-18.8,42q.39,10.8,11.2,10.8t32.8-23.2q10.39-12,13-15.6c1.73-2.4,3.26-3.26,4.6-2.6s2,1.27,2,1.8q0,4-14.4,20.8-22.8,28-40.4,28-11.61,0-16.4-10-8,8.4-15.6,15.6-15.6,13.2-34.8,13.2-10.8,0-18-5.2-14-8.4-14-30,0-23.6,16-48a115.82,115.82,0,0,1,21.6-25.2q19.59-17.19,37.2-17.2a29.11,29.11,0,0,1,8.4,1.2q12,4,12,15.2,0,9.21-4.8,9.2c-1.34-.53-2-2.53-2-6q0-7.2-8-7.2-14,0-36,25.6t-26.4,51.6a54.44,54.44,0,0,0-.8,9.8q0,5.4,3.6,12.4t13.4,7q9.8,0,21.4-8.8a93.53,93.53,0,0,0,20.8-22.4"/><path class="cls-2" d="M345.83,373.44h18.48c12.1,0,18,6.71,18,19v38.94c0,12.32-5.94,19-18,19H345.83Zm18.26,66c3.85,0,6.16-2,6.16-7.48v-40c0-5.5-2.31-7.48-6.16-7.48h-6.16v55Z"/><path class="cls-2" d="M414.68,373.44h12.1v77h-12.1Z"/><path class="cls-2" d="M457.91,432.18v-4.4h11.44v5.28c0,5.5,2.42,7.48,6.27,7.48s6.27-2,6.27-7.7c0-6.38-2.42-10.45-10.34-17.38-10.12-8.91-13.42-15.18-13.42-24,0-12.1,6.27-19.14,18-19.14s17.6,7,17.6,19.36v3.19H482.33v-4c0-5.5-2.2-7.59-6.05-7.59s-6,2.09-6,7.37c0,5.61,2.53,9.68,10.45,16.61C490.8,416.23,494,422.39,494,432c0,12.54-6.38,19.58-18.26,19.58S457.91,444.5,457.91,432.18Z"/><path class="cls-2" d="M525.12,373.44h33v11h-20.9v20.35h16.61v11H537.22v23.65h20.9v11h-33Z"/><path class="cls-2" d="M589.25,373.44h15.18l11.77,46.09h.22V373.44H627.2v77H614.77l-14.52-56.21H600v56.21H589.25Zm3.74-8.25c2.75-6.16,5.83-9.24,10-9.24a12,12,0,0,1,6.6,2.09,7.55,7.55,0,0,0,3.74,1.43c1.76,0,3-1.21,4.4-4.29l5.83,3.52c-2.75,6.16-5.83,9.24-10,9.24a12,12,0,0,1-6.6-2.09,7.55,7.55,0,0,0-3.74-1.43c-1.76,0-3,1.21-4.4,4.29Z"/><path class="cls-2" d="M659.54,432.18V391.7c0-12.32,6.49-19.36,18.37-19.36s18.37,7,18.37,19.36v40.48c0,12.32-6.49,19.36-18.37,19.36S659.54,444.5,659.54,432.18Zm24.64.77v-42c0-5.5-2.42-7.59-6.27-7.59s-6.27,2.09-6.27,7.59v42c0,5.5,2.42,7.59,6.27,7.59S684.18,438.45,684.18,433Z"/><path class="cls-2" d="M769.76,411.94a12.65,12.65,0,1,1,12.65,12.65A12.58,12.58,0,0,1,769.76,411.94Z"/><path class="cls-2" d="M869.42,373.44h32v11H881.52v21.45h15.62v11H881.52v33.55h-12.1Z"/><path class="cls-2" d="M930.57,432.18V391.7c0-12.32,6.49-19.36,18.37-19.36s18.37,7,18.37,19.36v40.48c0,12.32-6.49,19.36-18.37,19.36S930.57,444.5,930.57,432.18Zm24.65.77v-42c0-5.5-2.42-7.59-6.28-7.59s-6.26,2.09-6.26,7.59v42c0,5.5,2.42,7.59,6.26,7.59S955.22,438.45,955.22,433Z"/><path class="cls-2" d="M1008.67,384.44H996v-11h37.41v11h-12.66v66h-12.1Z"/><path class="cls-2" d="M1062.13,432.18V391.7c0-12.32,6.49-19.36,18.37-19.36s18.37,7,18.37,19.36v40.48c0,12.32-6.49,19.36-18.37,19.36S1062.13,444.5,1062.13,432.18Zm24.64.77v-42c0-5.5-2.42-7.59-6.27-7.59s-6.27,2.09-6.27,7.59v42c0,5.5,2.42,7.59,6.27,7.59S1086.77,438.45,1086.77,433Z"/><path class="cls-2" d="M1130.33,432.18V391.7c0-12.32,6.16-19.36,18-19.36s18,7,18,19.36v6.6H1155v-7.37c0-5.5-2.42-7.59-6.27-7.59s-6.27,2.09-6.27,7.59v42.13c0,5.5,2.42,7.48,6.27,7.48s6.27-2,6.27-7.48V418h-6V407h17.49v25.19c0,12.32-6.16,19.36-18,19.36S1130.33,444.5,1130.33,432.18Z"/><path class="cls-2" d="M1198.42,373.44h17.93c12.54,0,17.93,5.83,17.93,17.71v4.73c0,7.92-2.53,13-7.92,15.18v.22c6.05,1.87,8,7.59,8,16.28v13.53c0,3.74.11,6.49,1.32,9.35h-12.32c-.66-2-1.1-3.19-1.1-9.46V426.9c0-7.15-2.09-9.46-7.59-9.46h-4.18v33h-12.1Zm16.5,33c4.51,0,7.26-2,7.26-8.14v-5.94c0-5.5-1.87-7.92-6.16-7.92h-5.5v22Z"/><path class="cls-2" d="M1276.3,373.44h16.39l12.54,77h-12.1l-2.2-15.29v.22h-13.75l-2.2,15.07h-11.22Zm13.2,51.48-5.39-38.06h-.22l-5.28,38.06Z"/><path class="cls-2" d="M1335.26,373.44h32v11h-19.91v21.45H1363v11h-15.62v33.55h-12.1Z"/><path class="cls-2" d="M1404.45,355.62h13.2l-11.77,12.65h-9.13Zm-7.15,17.82h12.1v77h-12.1Z"/><path class="cls-2" d="M1452,373.44h16.39l12.54,77h-12.1l-2.2-15.29v.22h-13.75l-2.2,15.07h-11.22Zm13.2,51.48-5.39-38.06h-.22l-5.28,38.06Z"/><path class="cls-2" d="M1552.07,411.94a12.65,12.65,0,1,1,12.65,12.65A12.58,12.58,0,0,1,1552.07,411.94Z"/><path class="cls-2" d="M1648.86,373.44h11.66l5.39,59.18h.22l5.72-59.18h13.2l5.72,59.18h.22l5.39-59.18h10.45l-7.81,77H1684l-5.5-51.92h-.22l-5.5,51.92h-16.06Z"/><path class="cls-2" d="M1737.19,373.44h33v11h-20.9v20.35h16.61v11h-16.61v23.65h20.9v11h-33Z"/><path class="cls-2" d="M1801.32,373.44h18.26c12.54,0,17.93,5.83,17.93,17.71v3.08c0,7.92-2.42,12.87-7.81,15.07v.22c6.49,2.2,9,7.92,9,16.06v6.6c0,11.88-6.27,18.26-18.37,18.26h-19Zm16.83,31.35c4.51,0,7.26-2,7.26-8.14v-4.29c0-5.5-1.87-7.92-6.16-7.92h-5.83v20.35Zm2.2,34.65c4.07,0,6.27-1.87,6.27-7.59v-6.71c0-7.15-2.31-9.35-7.81-9.35h-5.39v23.65Z"/></svg>